<svg data-v-1084b650="" xmlns="http://www.w3.org/2000/svg" viewBox="0 0 300 300"><!----> <!----> <rect data-v-1084b650="" fill="#000000" x="0" y="0" width="300px" height="300px" class="logo-background-square"></rect> <!----> <g data-v-1084b650="" id="26badb02-0524-1150-33bd-6eff3f6fc020" fill="#2e3034" transform="matrix(4.299999999999999,0,0,4.299999999999999,34.64640129804614,178.91203846633434)"><path d="M4.38 8.78L4.38 8.78C6.30 8.78 7.57 7.34 7.57 5.49C7.57 3.65 6.30 2.21 4.38 2.21L3.46 2.21C3.21 2.21 3.00 2.42 3.00 2.69L3.00 6.43C3.00 6.69 3.21 6.90 3.46 6.90C3.72 6.90 3.92 6.69 3.92 6.43L3.92 3.15L4.38 3.15C5.77 3.15 6.65 4.17 6.65 5.49C6.65 6.82 5.77 7.84 4.38 7.84L3.46 7.84C3.21 7.84 3.00 8.05 3.00 8.30C3.00 8.57 3.21 8.78 3.46 8.78ZM2.06 10.18L2.06 10.18L2.06 1.29L4.38 1.29C6.89 1.29 8.60 3.05 8.60 5.49C8.60 7.94 6.89 9.70 4.38 9.70L3.44 9.70C3.19 9.70 2.98 9.91 2.98 10.18C2.98 10.43 3.19 10.64 3.44 10.64L4.38 10.64C7.42 10.64 9.53 8.46 9.53 5.49C9.53 2.53 7.42 0.35 4.38 0.35L1.58 0.35C1.33 0.35 1.12 0.56 1.12 0.81L1.12 10.18C1.12 10.43 1.33 10.64 1.58 10.64C1.85 10.64 2.06 10.43 2.06 10.18ZM16.72 2.23L16.72 2.23L13.75 2.23C13.48 2.23 13.27 2.42 13.27 2.69L13.27 4.56C13.27 4.82 13.48 5.03 13.75 5.03L15.85 5.03C16.11 5.03 16.32 4.82 16.32 4.56C16.32 4.30 16.11 4.09 15.85 4.09L14.21 4.09L14.21 3.15L16.72 3.15C16.98 3.15 17.19 2.94 17.19 2.69C17.19 2.42 16.98 2.23 16.72 2.23ZM15.85 5.96L15.85 5.96L13.75 5.96C13.48 5.96 13.27 6.17 13.27 6.43L13.27 8.30C13.27 8.55 13.48 8.76 13.75 8.76L16.72 8.76C16.98 8.76 17.19 8.55 17.19 8.30C17.19 8.04 16.98 7.83 16.72 7.83L14.21 7.83L14.21 6.90L15.85 6.90C16.11 6.90 16.32 6.69 16.32 6.43C16.32 6.17 16.11 5.96 15.85 5.96ZM16.72 9.70L16.72 9.70L12.35 9.70L12.35 1.29L16.72 1.29C16.98 1.29 17.19 1.08 17.19 0.81C17.19 0.56 16.98 0.35 16.72 0.35L11.87 0.35C11.62 0.35 11.41 0.56 11.41 0.81L11.41 10.18C11.41 10.43 11.62 10.64 11.87 10.64L16.72 10.64C16.98 10.64 17.19 10.43 17.19 10.18C17.19 9.91 16.98 9.70 16.72 9.70ZM27.50 10.16L27.50 10.16L27.50 4.24C27.50 3.99 27.29 3.78 27.02 3.78C26.85 3.78 26.71 3.86 26.63 3.99L24.22 7.42L21.84 3.98C21.69 3.77 21.38 3.71 21.17 3.86C21.04 3.95 20.97 4.10 20.97 4.24L20.97 4.24L20.97 10.16C20.97 10.43 21.18 10.64 21.43 10.64C21.71 10.64 21.92 10.43 21.92 10.16L21.92 5.75L23.84 8.51C23.87 8.55 23.91 8.60 23.95 8.64C24.16 8.78 24.47 8.72 24.63 8.51L26.54 5.75L26.54 10.16C26.54 10.43 26.75 10.64 27.02 10.64C27.29 10.64 27.50 10.43 27.50 10.16ZM20.02 10.16L20.02 10.16L20.02 0.67C20.02 0.41 19.81 0.20 19.54 0.20C19.28 0.20 19.07 0.41 19.07 0.67L19.07 10.16C19.07 10.43 19.28 10.64 19.54 10.64C19.81 10.64 20.02 10.43 20.02 10.16ZM29.40 10.16L29.40 10.16L29.40 0.67C29.40 0.41 29.19 0.20 28.91 0.20C28.66 0.20 28.45 0.41 28.45 0.67L28.45 10.16C28.45 10.43 28.66 10.64 28.91 10.64C29.19 10.64 29.40 10.43 29.40 10.16ZM26.81 0.39L26.81 0.39L24.22 4.10L21.66 0.39C21.50 0.18 21.20 0.13 20.99 0.28C20.78 0.43 20.73 0.73 20.87 0.94L23.84 5.18C23.87 5.24 23.91 5.28 23.95 5.31C24.16 5.47 24.47 5.42 24.63 5.19L27.59 0.94C27.73 0.73 27.69 0.43 27.48 0.28C27.26 0.13 26.96 0.18 26.81 0.39ZM40.08 10.16L40.08 10.16L40.08 4.24C40.08 3.99 39.87 3.78 39.61 3.78C39.44 3.78 39.30 3.86 39.21 3.99L36.81 7.42L34.43 3.98C34.27 3.77 33.96 3.71 33.75 3.86C33.63 3.95 33.56 4.10 33.56 4.24L33.56 4.24L33.56 10.16C33.56 10.43 33.77 10.64 34.02 10.64C34.30 10.64 34.51 10.43 34.51 10.16L34.51 5.75L36.43 8.51C36.46 8.55 36.50 8.60 36.54 8.64C36.75 8.78 37.06 8.72 37.21 8.51L39.13 5.75L39.13 10.16C39.13 10.43 39.34 10.64 39.61 10.64C39.87 10.64 40.08 10.43 40.08 10.16ZM32.61 10.16L32.61 10.16L32.61 0.67C32.61 0.41 32.40 0.20 32.13 0.20C31.86 0.20 31.65 0.41 31.65 0.67L31.65 10.16C31.65 10.43 31.86 10.64 32.13 10.64C32.40 10.64 32.61 10.43 32.61 10.16ZM41.99 10.16L41.99 10.16L41.99 0.67C41.99 0.41 41.78 0.20 41.50 0.20C41.24 0.20 41.03 0.41 41.03 0.67L41.03 10.16C41.03 10.43 41.24 10.64 41.50 10.64C41.78 10.64 41.99 10.43 41.99 10.16ZM39.40 0.39L39.40 0.39L36.81 4.10L34.24 0.39C34.09 0.18 33.78 0.13 33.57 0.28C33.36 0.43 33.32 0.73 33.46 0.94L36.43 5.18C36.46 5.24 36.50 5.28 36.54 5.31C36.75 5.47 37.06 5.42 37.21 5.19L40.18 0.94C40.32 0.73 40.28 0.43 40.07 0.28C39.84 0.13 39.55 0.18 39.40 0.39ZM47.45 4.07L47.45 4.07C47.66 4.42 48.08 4.45 48.29 4.09L50.19 0.90C50.32 0.66 50.25 0.38 50.02 0.25C49.81 0.11 49.52 0.18 49.38 0.41L47.87 2.97L46.35 0.41C46.23 0.18 45.93 0.11 45.72 0.25C45.49 0.38 45.42 0.66 45.56 0.90ZM51.67 0.41L51.67 0.41L48.40 5.63C48.36 5.71 48.33 5.81 48.33 5.89L48.33 10.32C48.33 10.58 48.55 10.79 48.80 10.79C49.06 10.79 49.28 10.58 49.28 10.32L49.28 6.01L52.46 0.90C52.60 0.67 52.53 0.39 52.32 0.25C52.09 0.11 51.81 0.17 51.67 0.41ZM47.40 10.32L47.40 10.32L47.40 5.88C47.40 5.78 47.38 5.70 47.32 5.60L44.07 0.41C43.93 0.17 43.64 0.11 43.43 0.25C43.20 0.39 43.15 0.67 43.27 0.90L46.47 6.01L46.47 10.32C46.47 10.58 46.68 10.79 46.94 10.79C47.19 10.79 47.40 10.58 47.40 10.32Z"></path></g> <!----> <g data-v-1084b650="" id="850e39d4-3c5d-d1f9-3d73-aca34e51837f" stroke="none" fill="#488eff" transform="matrix(0.3103920338583627,0,0,0.3103920338583627,103.43557980816374,73.81198839290647)"><svg xmlns="http://www.w3.org/2000/svg" data-name="" layer="" 1"="" viewBox="0 0 100 100"><path d="M96.72 6.84a5.27 5.27 0 0 0-1.49-4.47 4.91 4.91 0 0 0-4-1.33C61.11 4.7 43.86 18.19 34 31.47l-4.61-.24a11.86 11.86 0 0 0-9 3.46l-7.2 7.2a.75.75 0 0 0 .24 1.22l11.48 4.76a66.25 66.25 0 0 0-3.09 10.06 3.72 3.72 0 0 0 1 3.42l13.62 13.58a3.72 3.72 0 0 0 3.42 1 66.32 66.32 0 0 0 10.06-3.09l4.76 11.48a.75.75 0 0 0 1.22.24l7.2-7.2a11.87 11.87 0 0 0 3.46-9l-.24-4.61C79.57 54 93 36.78 96.72 6.84zm-38 41.35a6.45 6.45 0 1 1 0-9.12 6.45 6.45 0 0 1 .01 9.11zm4-13.08a8.49 8.49 0 1 1 12 0 8.49 8.49 0 0 1-12.03-.01zM10.9 77.39a12.45 12.45 0 0 0-6.28-.5 1.14 1.14 0 0 1-1-.31 1.15 1.15 0 0 1-.24-1.3c2.18-4.83 8.18-14.54 18.93-6.7a.54.54 0 0 1 0 .8A11.71 11.71 0 0 0 17.83 79a.85.85 0 0 0 .82.82 11.71 11.71 0 0 0 9.6-4.37.54.54 0 0 1 .83 0c1.5 1.79 5.62 7.6 1.06 13.22a11.86 11.86 0 0 1-8 4.2c-4.45.49-12.63 1.89-16 5.74a1.15 1.15 0 0 1-2-.42C3 94.15 1.21 85.15 10.9 77.39z"></path></svg></g></svg>